<svg width="346" height="48" viewBox="0 0 346 48" fill="none" xmlns="http://www.w3.org/2000/svg">
<path d="M80.9015 29.5597V0.219987H84.5508L95.1133 12.5396L105.686 0.219987H109.335V29.5597H105.255V6.65761L95.1083 18.4766L84.9763 6.65761V29.5597H80.8965H80.9015ZM131.942 27.5123C130.655 28.3333 129.334 28.959 127.967 29.3745C126.606 29.785 125.194 29.9902 123.742 29.9902C120.684 29.9902 118.246 29.0441 116.419 27.1469C114.591 25.2496 113.685 22.7216 113.685 19.5579C113.685 16.6645 114.566 14.3117 116.318 12.5045C118.071 10.7024 120.358 9.79633 123.187 9.79633C125.98 9.79633 128.198 10.7124 129.829 12.5446C131.471 14.3767 132.287 16.8497 132.287 19.9684V20.534H117.765C117.88 22.3662 118.481 23.7979 119.567 24.8291C120.654 25.8603 122.115 26.376 123.947 26.376C125.179 26.376 126.46 26.1457 127.802 25.6952C129.134 25.2346 130.515 24.5488 131.942 23.6277V27.5073V27.5123ZM117.765 17.7908H128.032C127.902 16.3741 127.397 15.2428 126.5 14.3918C125.604 13.5408 124.483 13.1103 123.142 13.1103C121.66 13.1103 120.458 13.5057 119.547 14.2967C118.636 15.0826 118.045 16.249 117.765 17.7908ZM149.247 25.2496V14.3467C148.617 13.8962 147.971 13.5658 147.32 13.3455C146.659 13.1303 145.954 13.0252 145.203 13.0252C143.235 13.0252 141.678 13.6259 140.547 14.8273C139.416 16.0287 138.85 17.6857 138.85 19.7982C138.85 21.9107 139.416 23.5726 140.547 24.7791C141.678 25.9905 143.23 26.5962 145.203 26.5962C145.954 26.5962 146.664 26.4911 147.32 26.2758C147.971 26.0556 148.617 25.7152 149.247 25.2496ZM149.247 28.4835C148.537 28.979 147.771 29.3445 146.955 29.5848C146.134 29.82 145.223 29.9452 144.221 29.9452C141.423 29.9452 139.145 29.0091 137.378 27.1319C135.611 25.2546 134.73 22.8268 134.73 19.8482C134.73 16.8697 135.611 14.4418 137.378 12.5646C139.145 10.6874 141.423 9.75127 144.221 9.75127C145.198 9.75127 146.099 9.87142 146.92 10.1167C147.741 10.362 148.522 10.7374 149.247 11.2531V0.214981H153.112V29.5547H149.247V28.4784V28.4835ZM157.973 4.47002C157.973 3.85429 158.178 3.33367 158.604 2.90817C159.024 2.48767 159.55 2.27742 160.165 2.27742C160.781 2.27742 161.302 2.48267 161.727 2.90817C162.148 3.32867 162.358 3.85429 162.358 4.47002C162.358 5.08575 162.153 5.60637 161.727 6.03187C161.307 6.45237 160.781 6.66262 160.165 6.66262C159.55 6.66262 159.029 6.45737 158.604 6.03187C158.183 5.61137 157.973 5.08575 157.973 4.47002ZM158.228 29.5597V10.1868H162.093V29.5597H158.228ZM182.327 24.9643V28.919C181.345 29.2694 180.399 29.5297 179.478 29.6999C178.557 29.8651 177.636 29.9502 176.73 29.9502C173.571 29.9502 170.983 29.0041 168.956 27.1068C166.928 25.2096 165.922 22.7917 165.922 19.8532C165.922 16.9798 166.938 14.582 168.966 12.6597C170.993 10.7274 173.531 9.76128 176.575 9.76128C177.511 9.76128 178.437 9.8614 179.348 10.0566C180.259 10.2519 181.15 10.5522 182.031 10.9577V15.0876C181.135 14.5419 180.249 14.1415 179.373 13.8862C178.502 13.6309 177.606 13.5007 176.695 13.5007C174.713 13.5007 173.086 14.0964 171.834 15.2828C170.583 16.4692 169.957 17.996 169.957 19.8582C169.957 21.7605 170.593 23.3073 171.869 24.5037C173.136 25.7002 174.813 26.3009 176.875 26.3009C177.826 26.3009 178.757 26.1957 179.658 25.9705C180.56 25.7552 181.451 25.4198 182.332 24.9693L182.327 24.9643ZM195.602 25.6151V19.9383C192.994 20.7493 191.197 21.5002 190.211 22.181C189.225 22.8668 188.729 23.6627 188.729 24.5738C188.729 25.3748 188.989 25.9905 189.495 26.421C190.011 26.8565 190.727 27.0718 191.653 27.0718C192.338 27.0718 193.014 26.9516 193.67 26.7013C194.331 26.4561 194.972 26.0906 195.602 25.6201V25.6151ZM195.747 27.9729C194.771 28.6587 193.845 29.1542 192.969 29.4546C192.098 29.755 191.157 29.9051 190.146 29.9051C188.414 29.9051 187.052 29.4896 186.071 28.6587C185.09 27.8227 184.604 26.6763 184.604 25.2196C184.604 23.853 185.135 22.6415 186.201 21.6103C187.262 20.5741 188.859 19.6981 190.997 18.9822L195.602 17.4404C195.617 17.3252 195.622 17.2201 195.632 17.105C195.637 16.9999 195.647 16.8347 195.647 16.6244C195.647 15.463 195.362 14.6321 194.796 14.1265C194.231 13.6158 193.295 13.3605 191.988 13.3605C190.912 13.3605 189.795 13.5908 188.654 14.0414C187.508 14.5019 186.356 15.1727 185.21 16.0688V12.2542C186.206 11.4383 187.313 10.8275 188.544 10.4121C189.775 10.0016 191.077 9.79633 192.469 9.79633C194.962 9.79633 196.764 10.347 197.905 11.4433C199.036 12.5396 199.602 14.3067 199.602 16.7546V24.9593C199.602 25.6451 199.657 26.1357 199.782 26.421C199.902 26.7064 200.098 26.8515 200.378 26.8515C200.623 26.8515 200.864 26.7864 201.129 26.6663C201.384 26.5361 201.81 26.2458 202.395 25.7803V28.1431C201.695 28.7438 200.994 29.1893 200.278 29.4746C199.567 29.76 198.831 29.9051 198.06 29.9051C197.324 29.9051 196.764 29.75 196.398 29.4396C196.028 29.1292 195.813 28.6436 195.753 27.9729H195.747ZM204.803 29.5647V0.224993H208.668V29.5647H204.803Z" fill="#FEFEFE"/>
<path d="M214.284 29.6952V0H231.194V3.78448H218.499V12.5649H230.804V16.3894H218.499V29.6952H214.284ZM246.382 25.7004V19.9536C243.744 20.7746 241.927 21.5355 240.926 22.2213C239.925 22.9171 239.424 23.7231 239.424 24.6392C239.424 25.4501 239.684 26.0759 240.2 26.5064C240.72 26.9469 241.446 27.1672 242.382 27.1672C243.078 27.1672 243.759 27.042 244.425 26.7917C245.091 26.5464 245.741 26.176 246.382 25.6954V25.7004ZM246.527 28.0833C245.541 28.7791 244.6 29.2797 243.714 29.585C242.828 29.8904 241.882 30.0406 240.861 30.0406C239.109 30.0406 237.732 29.6201 236.736 28.7791C235.745 27.9331 235.249 26.7717 235.249 25.3C235.249 23.9183 235.785 22.6919 236.866 21.6456C237.937 20.5944 239.554 19.7133 241.722 18.9875L246.382 17.4306C246.397 17.3155 246.402 17.2054 246.412 17.0902C246.417 16.9801 246.427 16.8149 246.427 16.6047C246.427 15.4333 246.137 14.5923 245.566 14.0767C244.996 13.5611 244.044 13.3008 242.728 13.3008C241.642 13.3008 240.51 13.531 239.349 13.9916C238.187 14.4571 237.021 15.1379 235.865 16.044V12.1794C236.871 11.3534 237.997 10.7377 239.244 10.3172C240.49 9.90173 241.807 9.69648 243.213 9.69648C245.736 9.69648 247.564 10.2521 248.715 11.3635C249.861 12.4698 250.432 14.2619 250.432 16.7398V25.0447C250.432 25.7405 250.492 26.2311 250.612 26.5214C250.737 26.8118 250.933 26.9569 251.213 26.9569C251.458 26.9569 251.703 26.8919 251.974 26.7667C252.234 26.6365 252.665 26.3412 253.255 25.8706V28.2635C252.544 28.8742 251.834 29.3197 251.113 29.6101C250.397 29.9004 249.651 30.0456 248.865 30.0456C248.119 30.0456 247.554 29.8854 247.183 29.575C246.808 29.2647 246.587 28.7691 246.532 28.0883L246.527 28.0833ZM272.183 25.0397V29.0394C271.192 29.3948 270.235 29.6551 269.299 29.8303C268.363 29.9955 267.437 30.0856 266.516 30.0856C263.322 30.0856 260.699 29.1295 258.647 27.2072C256.594 25.2849 255.573 22.837 255.573 19.8685C255.573 16.9651 256.604 14.5372 258.652 12.5849C260.704 10.6276 263.277 9.65143 266.356 9.65143C267.307 9.65143 268.238 9.75155 269.159 9.94678C270.08 10.142 270.986 10.4474 271.877 10.8579V15.0378C270.971 14.4872 270.075 14.0817 269.189 13.8214C268.303 13.5611 267.397 13.4309 266.481 13.4309C264.474 13.4309 262.827 14.0316 261.56 15.233C260.294 16.4345 259.663 17.9813 259.663 19.8635C259.663 21.7908 260.309 23.3577 261.595 24.5641C262.877 25.7755 264.574 26.3812 266.661 26.3812C267.627 26.3812 268.568 26.2711 269.48 26.0458C270.391 25.8306 271.292 25.4902 272.183 25.0296V25.0397ZM288.067 29.0844C287.456 29.4248 286.805 29.6802 286.104 29.8403C285.408 30.0055 284.653 30.0856 283.852 30.0856C281.649 30.0856 280.097 29.565 279.201 28.5138C278.3 27.4625 277.854 25.5553 277.854 22.782V13.476H274.505V13.0905L281.369 5.51653H281.809V10.0819H287.941V13.471H281.809V22.4766C281.809 24.0985 282.014 25.1498 282.41 25.6304C282.815 26.1009 283.571 26.3412 284.673 26.3412C285.268 26.3412 285.849 26.2611 286.41 26.1109C286.975 25.9507 287.526 25.7105 288.072 25.3851V29.0794L288.067 29.0844ZM305.332 27.2873C304.356 28.2284 303.385 28.9092 302.414 29.3448C301.442 29.7803 300.401 29.9955 299.285 29.9955C297.147 29.9955 295.46 29.3798 294.229 28.1483C292.997 26.9169 292.382 25.2299 292.382 23.0823V10.0819H296.336V22.0862C296.336 23.668 296.672 24.8394 297.343 25.5953C298.018 26.3562 299.06 26.7317 300.471 26.7317C301.477 26.7317 302.353 26.5364 303.114 26.151C303.87 25.7605 304.606 25.1147 305.332 24.2087V10.0769H309.247V29.6852H305.332V27.2773V27.2873ZM315.474 29.6952V10.0869H319.389V12.4698C320.365 11.5437 321.336 10.8629 322.307 10.4274C323.278 10.0018 324.319 9.78159 325.436 9.78159C326.878 9.78159 328.089 10.0519 329.06 10.5775C330.031 11.1082 330.842 11.9391 331.508 13.0855C332.709 11.8991 333.841 11.0481 334.892 10.5425C335.943 10.0369 337.065 9.78159 338.256 9.78159C340.394 9.78159 342.076 10.3973 343.312 11.6288C344.553 12.8552 345.169 14.5472 345.169 16.6948V29.6952H341.215V17.696C341.215 16.0941 340.889 14.9227 340.228 14.1668C339.568 13.4209 338.541 13.0455 337.14 13.0455C336.103 13.0455 335.207 13.2407 334.446 13.6311C333.681 14.0166 332.94 14.6624 332.214 15.5534V29.7002H328.389V17.701C328.389 16.1141 328.054 14.9377 327.383 14.1868C326.707 13.4259 325.666 13.0505 324.254 13.0505C323.248 13.0505 322.372 13.2457 321.611 13.6362C320.855 14.0216 320.12 14.6674 319.394 15.5584V29.7052H315.479L315.474 29.6952Z" fill="#FEFEFE"/>
<path d="M81.0167 44.5682L81.0117 35.6677H81.9779V43.6722L86.7035 43.6772L86.6985 35.6677H87.6646V44.5682H81.0217H81.0167ZM88.1652 46.8509V44.5682H87.199L87.194 43.6722L89.0713 43.6772V46.8509H88.1702H88.1652ZM93.111 44.7585C92.4603 44.7585 91.8896 44.6233 91.394 44.353C90.8984 44.0826 90.508 43.7022 90.2326 43.2116C89.9523 42.721 89.8121 42.1554 89.8121 41.5046C89.8121 41.034 89.8922 40.5985 90.0524 40.193C90.2126 39.7926 90.4379 39.4422 90.7282 39.1418C91.0186 38.8465 91.359 38.6162 91.7444 38.451C92.1299 38.2858 92.5554 38.2057 93.0109 38.2057C93.4965 38.2057 93.932 38.2908 94.3125 38.466C94.6929 38.6412 95.0133 38.8815 95.2686 39.1919C95.5239 39.5022 95.7091 39.8627 95.8193 40.2832C95.9294 40.6986 95.9594 41.1542 95.9044 41.6347H90.7783C90.7583 42.0903 90.8434 42.4908 91.0336 42.8312C91.2238 43.1716 91.5041 43.4419 91.8746 43.6321C92.245 43.8223 92.6805 43.9175 93.1911 43.9175C93.5265 43.9175 93.8569 43.8624 94.1873 43.7473C94.5177 43.6321 94.798 43.4719 95.0433 43.2567L95.4989 43.9875C95.2886 44.1577 95.0533 44.2979 94.783 44.418C94.5127 44.5332 94.2374 44.6233 93.952 44.6784C93.6667 44.7334 93.3864 44.7635 93.111 44.7635V44.7585ZM90.8283 40.8538H94.9432C94.9232 40.2832 94.748 39.8326 94.4176 39.5122C94.0872 39.1919 93.6166 39.0267 92.9959 39.0267C92.4002 39.0267 91.9046 39.1869 91.5142 39.5122C91.1237 39.8326 90.8934 40.2832 90.8283 40.8538ZM97.4712 44.5682L97.4662 38.4009H98.4073V40.8889L102.017 40.8939L102.012 38.4009H102.953V44.5682H102.017L102.012 41.7148H98.4073V44.5682H97.4712ZM106.537 44.5682L106.532 39.2269H104.324V38.4009H109.676V39.2269H107.468V44.5682H106.532H106.537ZM111.047 47.2364V38.4009H111.943V39.3821C112.204 39.0417 112.539 38.7613 112.935 38.5411C113.335 38.3208 113.846 38.2107 114.466 38.2107C115.082 38.2107 115.623 38.3559 116.093 38.6512C116.564 38.9416 116.924 39.337 117.185 39.8326C117.445 40.3282 117.575 40.8789 117.575 41.4846C117.575 41.9351 117.5 42.3556 117.35 42.7511C117.2 43.1465 116.984 43.497 116.709 43.7973C116.434 44.0977 116.103 44.3329 115.723 44.5031C115.342 44.6734 114.922 44.7585 114.456 44.7585C113.891 44.7585 113.4 44.6483 112.995 44.4381C112.589 44.2228 112.249 43.9425 111.983 43.5921V47.2414H111.042L111.047 47.2364ZM114.296 43.8874C114.747 43.8874 115.142 43.7873 115.493 43.5921C115.838 43.3968 116.113 43.1165 116.309 42.7611C116.504 42.4007 116.604 41.9802 116.604 41.4896C116.604 40.999 116.504 40.5735 116.304 40.2131C116.103 39.8526 115.833 39.5773 115.488 39.3821C115.142 39.1869 114.742 39.0917 114.296 39.0917C113.846 39.0917 113.45 39.1869 113.1 39.3821C112.754 39.5773 112.479 39.8526 112.284 40.2131C112.089 40.5735 111.988 40.999 111.988 41.4896C111.988 41.9802 112.089 42.4057 112.284 42.7611C112.479 43.1215 112.754 43.3968 113.1 43.5921C113.445 43.7873 113.846 43.8874 114.296 43.8874ZM122.536 44.5682V35.6677H123.477L127.272 41.7699L126.911 41.7749L130.6 35.6627H131.512V44.5632H130.55L130.555 37.0243L130.761 37.0894L127.427 42.4858H126.631L123.267 37.0894L123.412 37.0243L123.417 44.5632H122.531L122.536 44.5682ZM136.522 44.7585C135.872 44.7585 135.301 44.6233 134.805 44.353C134.31 44.0826 133.919 43.7022 133.644 43.2116C133.364 42.721 133.224 42.1554 133.224 41.5046C133.224 41.034 133.304 40.5985 133.464 40.193C133.624 39.7926 133.849 39.4422 134.14 39.1418C134.43 38.8465 134.77 38.6162 135.156 38.451C135.541 38.2858 135.967 38.2057 136.422 38.2057C136.908 38.2057 137.343 38.2908 137.724 38.466C138.104 38.6412 138.425 38.8815 138.68 39.1919C138.935 39.5022 139.121 39.8627 139.231 40.2832C139.341 40.6986 139.371 41.1542 139.316 41.6347H134.19C134.17 42.0903 134.255 42.4908 134.445 42.8312C134.635 43.1716 134.916 43.4419 135.286 43.6321C135.656 43.8223 136.092 43.9175 136.603 43.9175C136.938 43.9175 137.268 43.8624 137.599 43.7473C137.929 43.6321 138.209 43.4719 138.455 43.2567L138.91 43.9875C138.7 44.1577 138.465 44.2979 138.194 44.418C137.924 44.5332 137.649 44.6233 137.363 44.6784C137.078 44.7334 136.798 44.7635 136.522 44.7635V44.7585ZM134.24 40.8538H138.355C138.335 40.2832 138.159 39.8326 137.829 39.5122C137.499 39.1919 137.028 39.0267 136.407 39.0267C135.812 39.0267 135.316 39.1869 134.926 39.5122C134.535 39.8326 134.305 40.2832 134.24 40.8538ZM145.468 44.5682V39.2269H142.475V40.3182C142.475 40.9389 142.444 41.4796 142.394 41.9401C142.339 42.4057 142.239 42.8011 142.089 43.1265C141.939 43.4519 141.729 43.7172 141.458 43.9225C141.188 44.1277 140.838 44.2829 140.407 44.378L140.102 43.7723C140.517 43.6672 140.833 43.4819 141.043 43.2166C141.253 42.9513 141.393 42.5859 141.463 42.1153C141.533 41.6448 141.568 41.0441 141.568 40.3182V38.3959H146.414V44.5632H145.473L145.468 44.5682ZM140.102 46.4755V43.7773L140.823 43.8674L140.963 43.7422H147.666V46.4755H146.8V44.5682H140.968V46.4755H140.102ZM149.027 44.5682L149.022 38.4009H149.943L149.948 43.1065L153.783 38.4009H154.569V44.5682H153.648V39.8126L149.778 44.5682H149.027ZM156.671 44.5682L156.666 38.4009H157.607V43.7422H161.107V38.4009H162.043L162.048 44.5682H156.676H156.671ZM162.713 46.4755V44.5682H161.467L161.472 43.7422H163.574L163.579 46.4755H162.708H162.713ZM164.951 44.5682L164.946 38.4009H165.867L165.872 43.1065L169.707 38.4009H170.493V44.5682H169.572V39.8126L165.702 44.5682H164.951ZM172.595 44.5682L172.59 38.4009H173.531V40.8889L177.141 40.8939L177.136 38.4009H178.077V44.5682H177.141L177.136 41.7148H173.531V44.5682H172.595ZM180.169 44.5682V38.4009H181.11V43.7723H182.477C183.023 43.7723 183.433 43.6722 183.703 43.4719C183.974 43.2717 184.104 42.9713 184.104 42.5608C184.104 42.1554 183.979 41.845 183.723 41.6398C183.468 41.4345 183.088 41.3294 182.587 41.3294H180.94V40.5334H182.652C183.413 40.5334 184.009 40.7087 184.444 41.0591C184.88 41.4095 185.1 41.9101 185.1 42.5608C185.1 42.9813 184.995 43.3368 184.78 43.6371C184.564 43.9375 184.264 44.1627 183.879 44.3229C183.493 44.4831 183.048 44.5632 182.537 44.5632H180.174L180.169 44.5682ZM186.211 44.5682V38.4009H187.152V44.5682H186.211ZM192.489 44.5682L192.484 38.4009H193.405L193.41 43.1065L197.244 38.4009H198.03V44.5682H197.109V39.8126L193.24 44.5682H192.489ZM203.562 44.5682L203.557 35.6677H204.523V39.3621L209.374 39.3671L209.369 35.6677H210.335V44.5682H209.374L209.369 40.2581H204.523V44.5682H203.562ZM214.305 44.7585C213.864 44.7585 213.484 44.6784 213.158 44.5182C212.838 44.358 212.588 44.1327 212.412 43.8424C212.237 43.552 212.152 43.2116 212.152 42.8212C212.152 42.5008 212.237 42.2004 212.402 41.9351C212.568 41.6648 212.833 41.4395 213.198 41.2593C213.559 41.0791 214.034 40.9589 214.62 40.8989C215.206 40.8388 215.916 40.8588 216.757 40.9489L216.788 41.6948C216.097 41.6047 215.516 41.5747 215.035 41.5997C214.56 41.6247 214.174 41.6948 213.889 41.805C213.599 41.9151 213.393 42.0552 213.263 42.2305C213.133 42.4057 213.068 42.5959 213.068 42.8011C213.068 43.1566 213.193 43.4369 213.444 43.6321C213.694 43.8324 214.039 43.9325 214.485 43.9325C214.855 43.9325 215.191 43.8624 215.491 43.7222C215.786 43.5821 216.022 43.3918 216.197 43.1415C216.372 42.8962 216.457 42.6159 216.457 42.2955V40.4984C216.457 40.183 216.387 39.9177 216.252 39.6925C216.117 39.4672 215.921 39.292 215.656 39.1718C215.396 39.0467 215.075 38.9866 214.705 38.9866C214.385 38.9866 214.064 39.0367 213.744 39.1318C213.424 39.2269 213.108 39.3921 212.803 39.6174L212.497 38.8464C212.868 38.5811 213.253 38.4009 213.649 38.3008C214.044 38.2007 214.42 38.1506 214.775 38.1506C215.341 38.1506 215.811 38.2407 216.202 38.4159C216.587 38.5962 216.878 38.8565 217.078 39.2069C217.278 39.5523 217.378 39.9828 217.378 40.4984V44.5732H216.487V43.7923C216.267 44.1077 215.962 44.343 215.576 44.5132C215.191 44.6784 214.765 44.7635 214.3 44.7635L214.305 44.7585ZM219.526 47.4216C219.346 47.4216 219.165 47.3966 218.985 47.3515C218.805 47.3065 218.615 47.2264 218.419 47.1062L218.655 46.2752C218.78 46.3654 218.92 46.4304 219.07 46.4705C219.22 46.5105 219.351 46.5356 219.461 46.5356C219.801 46.5356 220.056 46.4555 220.232 46.2853C220.407 46.1201 220.552 45.8698 220.672 45.5294L220.952 44.7134L218.5 38.3959H219.551L221.498 43.567L223.395 38.3959H224.402L221.663 45.6445C221.483 46.1201 221.288 46.4855 221.078 46.7408C220.872 46.9961 220.637 47.1763 220.387 47.2714C220.131 47.3665 219.851 47.4166 219.541 47.4166L219.526 47.4216ZM229.563 44.5682V41.9752C229.252 42.0552 228.957 42.1153 228.677 42.1554C228.396 42.1954 228.096 42.2154 227.781 42.2154C227.205 42.2154 226.729 42.1303 226.364 41.9551C225.993 41.7849 225.723 41.5296 225.548 41.1992C225.373 40.8688 225.283 40.4584 225.283 39.9678V38.3959H226.224V39.8276C226.224 40.3282 226.349 40.7087 226.604 40.964C226.854 41.2243 227.285 41.3494 227.891 41.3494C228.236 41.3494 228.546 41.3344 228.812 41.2994C229.077 41.2643 229.327 41.2243 229.563 41.1742V38.3959H230.504V44.5632H229.563V44.5682ZM232.601 44.5682L232.596 38.4009H233.537V40.8889L237.147 40.8939L237.142 38.4009H238.083V44.5682H237.147L237.142 41.7148H233.537V44.5682H232.601ZM240.175 44.5682V38.4009H241.116V43.7723H242.483C243.029 43.7723 243.439 43.6722 243.709 43.4719C243.98 43.2717 244.11 42.9713 244.11 42.5608C244.11 42.1554 243.985 41.845 243.729 41.6398C243.474 41.4345 243.094 41.3294 242.593 41.3294H240.946V40.5334H242.658C243.419 40.5334 244.015 40.7087 244.45 41.0591C244.886 41.4095 245.106 41.9101 245.106 42.5608C245.106 42.9813 245.001 43.3368 244.786 43.6371C244.57 43.9375 244.27 44.1627 243.885 44.3229C243.499 44.4831 243.054 44.5632 242.543 44.5632H240.18L240.175 44.5682ZM246.217 44.5682V38.4009H247.158V44.5682H246.217ZM248.425 44.5682L250.668 41.4295L248.565 38.4009H249.757L251.293 40.7137L252.785 38.4009H253.921L251.894 41.3895L254.122 44.5682H252.915L251.263 42.1003L249.576 44.5632L248.425 44.5682ZM258.832 44.5682L258.827 35.6677H259.788L259.793 42.9113L264.809 35.6677H265.7V44.5682H264.739V37.2946L259.703 44.5682H258.832ZM270.736 44.7585C270.091 44.7585 269.52 44.6183 269.019 44.3329C268.519 44.0476 268.128 43.6571 267.843 43.1666C267.558 42.671 267.417 42.1153 267.417 41.4846C267.417 41.004 267.503 40.5685 267.668 40.173C267.833 39.7776 268.073 39.4321 268.384 39.1368C268.694 38.8414 269.059 38.6162 269.475 38.456C269.89 38.2958 270.346 38.2157 270.837 38.2157C271.222 38.2157 271.577 38.2658 271.903 38.3609C272.228 38.461 272.529 38.6112 272.809 38.8264L272.298 39.5723C272.113 39.4171 271.893 39.297 271.637 39.2119C271.382 39.1318 271.107 39.0867 270.811 39.0867C270.321 39.0867 269.895 39.1818 269.535 39.3671C269.175 39.5573 268.894 39.8276 268.694 40.188C268.494 40.5485 268.394 40.979 268.394 41.4746C268.394 42.2305 268.609 42.8212 269.044 43.2467C269.475 43.6772 270.066 43.8874 270.806 43.8874C271.132 43.8874 271.437 43.8273 271.723 43.7072C272.008 43.5871 272.233 43.4419 272.398 43.2667L272.944 43.9875C272.624 44.2228 272.278 44.413 271.908 44.5482C271.532 44.6884 271.147 44.7585 270.736 44.7585ZM276.994 44.7585C276.348 44.7585 275.777 44.6183 275.277 44.3329C274.776 44.0476 274.386 43.6571 274.1 43.1666C273.815 42.671 273.675 42.1153 273.675 41.4846C273.675 41.004 273.76 40.5685 273.925 40.173C274.09 39.7776 274.331 39.4321 274.641 39.1368C274.951 38.8414 275.317 38.6162 275.732 38.456C276.148 38.2958 276.603 38.2157 277.094 38.2157C277.479 38.2157 277.835 38.2658 278.16 38.3609C278.486 38.461 278.786 38.6112 279.066 38.8264L278.556 39.5723C278.37 39.4171 278.15 39.297 277.895 39.2119C277.64 39.1318 277.364 39.0867 277.069 39.0867C276.578 39.0867 276.153 39.1818 275.792 39.3671C275.432 39.5573 275.152 39.8276 274.951 40.188C274.751 40.5485 274.651 40.979 274.651 41.4746C274.651 42.2305 274.866 42.8212 275.302 43.2467C275.732 43.6772 276.323 43.8874 277.064 43.8874C277.389 43.8874 277.695 43.8273 277.98 43.7072C278.265 43.5871 278.491 43.4419 278.656 43.2667L279.201 43.9875C278.881 44.2228 278.536 44.413 278.165 44.5482C277.79 44.6884 277.404 44.7585 276.994 44.7585ZM280.238 44.6433L279.877 43.7673C280.308 43.6571 280.628 43.4769 280.828 43.2216C281.029 42.9713 281.159 42.6109 281.214 42.1454C281.269 41.6798 281.294 41.0691 281.294 40.3182V38.3959H286.009V44.5632H285.068V39.2219H282.2V40.3132C282.2 40.994 282.175 41.5847 282.12 42.0753C282.065 42.5659 281.97 42.9813 281.83 43.3217C281.689 43.6622 281.494 43.9325 281.234 44.1427C280.979 44.353 280.643 44.5182 280.233 44.6383L280.238 44.6433ZM290.835 44.7585C290.184 44.7585 289.614 44.6233 289.118 44.353C288.623 44.0826 288.232 43.7022 287.957 43.2116C287.676 42.721 287.536 42.1554 287.536 41.5046C287.536 41.034 287.616 40.5985 287.777 40.193C287.937 39.7926 288.162 39.4422 288.452 39.1418C288.743 38.8465 289.083 38.6162 289.469 38.451C289.854 38.2858 290.28 38.2057 290.735 38.2057C291.221 38.2057 291.656 38.2908 292.037 38.466C292.417 38.6412 292.737 38.8815 292.993 39.1919C293.248 39.5022 293.433 39.8627 293.543 40.2832C293.654 40.6986 293.684 41.1542 293.629 41.6347H288.502C288.482 42.0903 288.568 42.4908 288.758 42.8312C288.948 43.1716 289.228 43.4419 289.599 43.6321C289.969 43.8223 290.405 43.9175 290.915 43.9175C291.251 43.9175 291.581 43.8624 291.911 43.7473C292.242 43.6321 292.522 43.4719 292.767 43.2567L293.223 43.9875C293.013 44.1577 292.778 44.2979 292.507 44.418C292.237 44.5332 291.962 44.6233 291.676 44.6784C291.391 44.7334 291.111 44.7635 290.835 44.7635V44.7585ZM288.552 40.8538H292.667C292.647 40.2832 292.472 39.8326 292.142 39.5122C291.811 39.1919 291.341 39.0267 290.72 39.0267C290.124 39.0267 289.629 39.1869 289.238 39.5122C288.848 39.8326 288.618 40.2832 288.552 40.8538ZM299.781 44.5682V39.2269H296.787V40.3182C296.787 40.9389 296.757 41.4796 296.707 41.9401C296.652 42.4057 296.552 42.8011 296.402 43.1265C296.252 43.4519 296.041 43.7172 295.771 43.9225C295.501 44.1277 295.15 44.2829 294.72 44.378L294.414 43.7723C294.83 43.6672 295.145 43.4819 295.356 43.2166C295.566 42.9513 295.706 42.5859 295.776 42.1153C295.846 41.6448 295.881 41.0441 295.881 40.3182V38.3959H300.727V44.5632H299.786L299.781 44.5682ZM294.414 46.4755V43.7773L295.135 43.8674L295.275 43.7422H301.978V46.4755H301.112V44.5682H295.28V46.4755H294.414ZM305.933 44.7585C305.307 44.7585 304.742 44.6083 304.246 44.3129C303.75 44.0176 303.36 43.6221 303.075 43.1215C302.789 42.6259 302.649 42.0803 302.649 41.4796C302.649 41.034 302.729 40.6135 302.895 40.2231C303.06 39.8276 303.285 39.4772 303.585 39.1768C303.881 38.8715 304.231 38.6362 304.627 38.466C305.027 38.2958 305.458 38.2107 305.928 38.2107C306.559 38.2107 307.124 38.3609 307.615 38.6562C308.111 38.9516 308.496 39.347 308.781 39.8476C309.067 40.3432 309.207 40.8939 309.207 41.4846C309.207 41.9251 309.127 42.3406 308.962 42.7411C308.796 43.1365 308.571 43.4869 308.276 43.7923C307.986 44.0977 307.64 44.3329 307.24 44.5031C306.839 44.6734 306.399 44.7635 305.928 44.7635L305.933 44.7585ZM305.933 43.8874C306.384 43.8874 306.779 43.7873 307.129 43.5921C307.475 43.3968 307.75 43.1165 307.945 42.7611C308.141 42.4007 308.241 41.9802 308.241 41.4896C308.241 40.999 308.141 40.5735 307.945 40.2131C307.75 39.8526 307.475 39.5773 307.129 39.3821C306.784 39.1869 306.384 39.0917 305.933 39.0917C305.483 39.0917 305.087 39.1869 304.737 39.3821C304.391 39.5773 304.116 39.8526 303.921 40.2131C303.725 40.5735 303.625 40.999 303.625 41.4896C303.625 41.9802 303.725 42.4057 303.926 42.7611C304.126 43.1215 304.396 43.3968 304.742 43.5921C305.087 43.7873 305.483 43.8874 305.933 43.8874ZM310.739 44.5682V38.4009H313.472C314.148 38.4009 314.693 38.5361 315.119 38.8014C315.544 39.0717 315.755 39.4722 315.755 40.0028C315.755 40.2231 315.705 40.4283 315.605 40.6135C315.504 40.7988 315.359 40.959 315.174 41.0991C314.989 41.2343 314.764 41.3344 314.498 41.4045L314.478 41.1992C314.984 41.2943 315.364 41.4796 315.625 41.7599C315.885 42.0402 316.01 42.3856 316.01 42.7961C316.01 43.1616 315.915 43.4769 315.72 43.7372C315.524 44.0026 315.249 44.2078 314.894 44.353C314.533 44.4981 314.113 44.5682 313.622 44.5682H310.729H310.739ZM311.665 43.7773H313.497C314.003 43.7773 314.393 43.6972 314.668 43.532C314.944 43.3668 315.084 43.1215 315.084 42.7861C315.084 42.4507 314.944 42.2054 314.668 42.0402C314.393 41.88 314.003 41.7999 313.497 41.7999H311.495V41.024H313.357C313.827 41.024 314.193 40.9539 314.448 40.8088C314.708 40.6686 314.834 40.4333 314.834 40.1079C314.834 39.7776 314.708 39.5423 314.448 39.3971C314.193 39.2519 313.827 39.1818 313.352 39.1818H311.66V43.7773H311.665ZM319.454 44.7585C319.014 44.7585 318.633 44.6784 318.308 44.5182C317.987 44.358 317.737 44.1327 317.562 43.8424C317.387 43.552 317.302 43.2116 317.302 42.8212C317.302 42.5008 317.387 42.2004 317.552 41.9351C317.717 41.6648 317.982 41.4395 318.348 41.2593C318.708 41.0791 319.184 40.9589 319.769 40.8989C320.355 40.8388 321.066 40.8588 321.907 40.9489L321.937 41.6948C321.246 41.6047 320.666 41.5747 320.185 41.5997C319.709 41.6247 319.324 41.6948 319.039 41.805C318.748 41.9151 318.543 42.0552 318.413 42.2305C318.283 42.4057 318.218 42.5959 318.218 42.8011C318.218 43.1566 318.343 43.4369 318.593 43.6321C318.843 43.8324 319.189 43.9325 319.634 43.9325C320.005 43.9325 320.34 43.8624 320.64 43.7222C320.936 43.5821 321.171 43.3918 321.346 43.1415C321.522 42.8962 321.607 42.6159 321.607 42.2955V40.4984C321.607 40.183 321.537 39.9177 321.401 39.6925C321.266 39.4672 321.071 39.292 320.806 39.1718C320.545 39.0467 320.225 38.9866 319.855 38.9866C319.534 38.9866 319.214 39.0367 318.893 39.1318C318.573 39.2269 318.258 39.3921 317.952 39.6174L317.647 38.8464C318.017 38.5811 318.403 38.4009 318.798 38.3008C319.194 38.2007 319.569 38.1506 319.925 38.1506C320.49 38.1506 320.961 38.2407 321.351 38.4159C321.737 38.5962 322.027 38.8565 322.227 39.2069C322.428 39.5523 322.528 39.9828 322.528 40.4984V44.5732H321.637V43.7923C321.416 44.1077 321.111 44.343 320.726 44.5132C320.34 44.6784 319.915 44.7635 319.449 44.7635L319.454 44.7585ZM324.545 44.5682L324.54 38.4009H325.481V40.8889L329.09 40.8939L329.085 38.4009H330.027V44.5682H329.09L329.085 41.7148H325.481V44.5682H324.545ZM332.124 44.5682L332.119 38.4009H333.04L333.045 43.1065L336.88 38.4009H337.666V44.5682H336.745V39.8126L332.875 44.5682H332.124ZM339.768 44.5682L339.763 38.4009H340.684L340.689 43.1065L344.524 38.4009H345.31V44.5682H344.389V39.8126L340.519 44.5682H339.768ZM342.531 37.1945C342.101 37.1945 341.715 37.0994 341.385 36.9041C341.055 36.7139 340.799 36.4486 340.614 36.1182C340.434 35.7878 340.349 35.4074 340.364 34.9769H341.185C341.17 35.4224 341.285 35.7778 341.53 36.0531C341.776 36.3285 342.111 36.4636 342.526 36.4636C342.947 36.4636 343.277 36.3235 343.518 36.0531C343.758 35.7778 343.868 35.4224 343.843 34.9769H344.674C344.689 35.4024 344.604 35.7778 344.419 36.1132C344.238 36.4486 343.983 36.7089 343.653 36.9041C343.322 37.0994 342.947 37.1945 342.521 37.1945H342.531Z" fill="#FEFEFE"/>
<path fill-rule="evenodd" clip-rule="evenodd" d="M34.8863 18.7966H60.5117V27.8273H43.917V44.3018H34.8863V18.7966ZM34.8863 0.304688L21.9059 17.7453L8.90054 0.304688L0 0.474889V44.3018H9.03069V15.5828L22.0461 33.0334L39.717 9.33538H60.5167V0.304688H34.8913H34.8863Z" fill="#FEFEFE"/>
</svg>
